PathFileType   4   (X/Y/Z)
DataRate	CameraRate	NumFrames	NumMarkers	Units	OrigDataRate	OrigDataStartFrame	OrigNumFrames
120.0	120.0	5	37	mm	120.0	69	182
Frame#	Time	midhip	hip_r	hip_l	knee_r	knee_l	ankle_r	ankle_l	midasis	asis_r	asis_l	psis_r	psis_l	epicondLat_r	epicondLat_l	epicondMed_r	epicondMed_l	malleolusLat_r	malleolusLat_l	malleolusMedv_r	malleolusMedv_l	neck	subclavicle_r	subclavicle_l	sternalnotch	xyphoidprocess	thighwand_r	thighwand_l	upperleg1_r	upperleg1_l	upperleg2_r	upperleg2_l	shankwand_r	shankwand_l	lowerleg1_r	lowerleg1_l	toe_r	toe_l
 	 	X1	Y1	Z1	X2	Y2	Z2	X3	Y3	Z3	X4	Y4	Z4	X5	Y5	Z5	X6	Y6	Z6	X7	Y7	Z7	X8	Y8	Z8	X9	Y9	Z9	X10	Y10	Z10	X11	Y11	Z11	X12	Y12	Z12	X13	Y13	Z13	X14	Y14	Z14	X15	Y15	Z15	X16	Y16	Z16	X17	Y17	Z17	X18	Y18	Z18	X19	Y19	Z19	X20	Y20	Z20	X21	Y21	Z21	X22	Y22	Z22	X23	Y23	Z23	X24	Y24	Z24	X25	Y25	Z25	X26	Y26	Z26	X27	Y27	Z27	X28	Y28	Z28	X29	Y29	Z29	X30	Y30	Z30	X31	Y31	Z31	X32	Y32	Z32	X33	Y33	Z33	X34	Y34	Z34	X35	Y35	Z35	X36	Y36	Z36	X37	Y37	Z37

	69	0.82500	-605.932	893.409	264.032	-607.236	879.130	322.103	-612.290	875.897	215.702	-466.681	488.088	329.298	-659.251	466.778	217.881	-368.560	82.035	327.685	-805.078	71.397	233.379	-531.914	974.831	262.248	-526.948	978.007	366.779	-536.879	971.655	157.717	-729.697	999.527	311.594	-737.418	1000.618	227.475	-460.342	491.453	388.364	-652.291	465.664	158.800	-487.841	489.263	274.341	-675.165	472.121	264.683	-374.949	80.343	365.105	-802.922	69.059	194.008	-372.034	90.060	295.973	-799.152	81.209	263.106	-645.103	1457.394	256.221	-552.701	1379.909	337.515	-556.783	1379.732	181.306	-567.021	1382.109	255.765	-545.650	1178.372	248.691	-463.666	592.130	472.381	-500.337	576.391	210.815	-465.556	656.011	400.736	-564.661	644.546	166.323	-445.141	578.131	377.096	-586.178	560.075	172.037	-385.030	157.932	433.894	-672.383	147.810	247.997	-413.805	209.998	372.587	-717.082	213.953	224.533	-246.990	83.710	316.473	-680.020	41.590	240.871
	70	0.83333	-600.420	893.304	264.193	-601.757	878.570	322.497	-607.216	875.335	216.116	-461.936	487.307	329.023	-656.870	466.469	217.798	-365.954	80.722	327.090	-804.767	71.825	233.141	-526.637	974.249	262.353	-521.272	977.427	366.889	-532.002	971.070	157.816	-724.292	998.977	312.466	-732.412	1000.141	228.366	-455.340	490.649	388.062	-650.019	465.394	158.704	-483.166	489.008	273.835	-672.750	472.005	264.492	-372.255	79.057	364.527	-802.687	69.514	193.764	-369.293	88.744	295.388	-798.859	81.698	262.849	-640.217	1456.825	257.111	-547.631	1379.329	338.154	-552.046	1379.308	181.977	-562.126	1381.605	256.449	-540.668	1177.886	249.122	-458.117	591.270	472.045	-497.291	575.313	210.616	-459.942	655.381	400.581	-561.196	643.894	166.331	-439.876	577.446	376.696	-583.279	559.512	171.917	-381.747	156.687	433.361	-671.788	147.547	247.593	-410.238	208.920	372.117	-716.210	213.953	224.326	-244.265	81.540	315.940	-679.932	41.604	240.704
	71	0.84167	-594.668	893.450	264.273	-596.201	878.021	322.917	-602.119	874.783	216.561	-457.226	486.514	328.724	-654.482	466.175	217.723	-363.910	79.290	326.506	-804.438	72.283	232.914	-521.320	973.681	262.446	-515.502	976.863	366.979	-527.137	970.499	157.913	-718.795	998.440	313.382	-727.405	999.656	229.320	-450.381	489.819	387.736	-647.732	465.141	158.616	-478.402	488.635	273.293	-670.647	472.276	264.977	-370.088	77.670	363.965	-802.445	70.005	193.530	-367.165	87.196	294.864	-798.575	82.178	262.640	-635.321	1456.272	258.105	-542.421	1378.770	338.909	-547.325	1378.889	182.676	-557.174	1381.109	257.217	-535.588	1177.414	249.635	-452.602	590.364	471.687	-494.209	574.270	210.446	-454.465	654.694	400.363	-557.748	643.253	166.327	-434.632	576.708	376.233	-580.729	558.677	172.059	-378.828	155.371	432.829	-671.171	147.316	247.171	-406.956	207.746	371.703	-715.240	214.019	224.049	-242.073	79.062	315.405	-679.842	41.610	240.514
	72	0.85000	-589.203	893.244	264.242	-590.588	877.470	323.358	-597.014	874.242	217.031	-452.543	485.731	328.399	-652.070	465.901	217.662	-362.347	77.817	325.931	-804.098	72.775	232.703	-515.975	973.119	262.538	-509.658	976.292	367.056	-522.291	969.946	158.020	-713.208	997.912	314.332	-722.434	999.170	230.345	-445.468	488.983	387.387	-645.416	464.913	158.544	-473.384	488.292	272.612	-668.448	472.528	265.437	-368.379	76.257	363.417	-802.204	70.535	193.312	-365.555	85.533	294.356	-798.249	82.671	262.454	-630.335	1455.728	259.211	-537.137	1378.186	339.718	-542.521	1378.518	183.477	-552.143	1380.629	258.063	-530.437	1176.959	250.134	-447.143	589.418	471.309	-491.065	573.266	210.302	-449.095	653.912	400.201	-554.295	642.593	166.332	-429.352	575.978	375.760	-578.106	557.927	172.195	-376.232	154.032	432.277	-670.526	147.111	246.737	-404.103	206.526	371.270	-714.150	214.127	223.755	-240.327	76.285	314.887	-679.747	41.612	240.300
	73	0.85833	-583.864	892.835	264.225	-584.935	876.919	323.804	-591.894	873.716	217.510	-447.899	484.999	328.041	-649.595	465.671	217.640	-361.060	76.432	325.347	-803.739	73.316	232.508	-510.600	972.559	262.631	-503.759	975.708	367.119	-517.440	969.410	158.144	-707.545	997.404	315.305	-717.420	998.689	231.416	-440.617	488.183	387.008	-643.041	464.725	158.510	-468.287	488.144	271.786	-665.583	472.247	265.481	-366.937	74.936	362.860	-801.956	71.123	193.110	-364.463	83.791	293.835	-797.891	83.231	262.247	-625.322	1455.165	260.309	-531.919	1377.697	340.485	-537.554	1378.201	184.357	-547.059	1380.212	258.908	-525.069	1176.583	250.708	-441.764	588.468	470.912	-487.836	572.306	210.178	-443.630	653.199	400.035	-550.969	641.962	166.370	-424.039	575.333	375.264	-575.082	557.439	172.169	-373.842	152.770	431.679	-669.849	146.936	246.288	-401.715	205.251	370.741	-713.170	214.249	223.467	-238.841	73.264	314.397	-679.642	41.619	240.070
